Coordinates
version=1
nRows=5
nColumns=40
inDegrees=yes

Units are S.I. units (second, meters, Newtons, ...)
Angles are in degrees.

endheader
time	pelvis_tilt	pelvis_list	pelvis_rotation	pelvis_tx	pelvis_ty	pelvis_tz	hip_flexion_r	hip_adduction_r	hip_rotation_r	knee_angle_r	knee_angle_r_beta	ankle_angle_r	subtalar_angle_r	mtp_angle_r	hip_flexion_l	hip_adduction_l	hip_rotation_l	knee_angle_l	knee_angle_l_beta	ankle_angle_l	subtalar_angle_l	mtp_angle_l	lumbar_extension	lumbar_bending	lumbar_rotation	arm_flex_r	arm_add_r	arm_rot_r	elbow_flex_r	pro_sup_r	wrist_flex_r	wrist_dev_r	arm_flex_l	arm_add_l	arm_rot_l	elbow_flex_l	pro_sup_l	wrist_flex_l	wrist_dev_l
     37.13228571	     -5.34721581	     -3.56649230	     14.62635156	      1.10332867	      0.92255420	      0.53075750	      5.86584551	      1.94097880	    -16.64961926	     17.19768705	     17.19768705	     17.88234551	     -5.35533410	     -1.68286669	     27.04281073	     -6.97295019	      1.39693130	     17.12112716	     17.12112716	      3.86156959	     -0.68122912	      0.31258049	     -8.85280175	      3.74489708	      3.44547316	     55.57957529	    -18.83983474	    -10.62742024	     73.92681750	     45.11474563	      0.00000000	      0.00000000	    -14.98489663	     -8.02067089	     18.71364724	     33.77625538	     43.75616617	      0.00000000	      0.00000000
     37.15457143	     -5.42976515	     -3.68124050	     14.45880832	      1.10440035	      0.92203389	      0.52725366	      5.56415554	      1.89030067	    -16.51781780	     17.21518906	     17.21518906	     18.02870686	     -5.28018379	     -1.72233992	     26.85959605	     -6.89198049	      1.31087013	     17.41726686	     17.41726686	      3.85036773	     -0.85622189	      0.17989172	     -8.63489761	      3.63982241	      3.34217677	     55.57308112	    -18.52011033	    -10.50902292	     74.02408079	     45.10781133	      0.00000000	      0.00000000	    -14.24178612	     -8.25391056	     18.63826156	     33.93551149	     43.77928139	      0.00000000	      0.00000000
     37.17685714	     -5.44689031	     -3.75638042	     14.21297740	      1.10562864	      0.92169346	      0.52352264	      5.17921224	      1.78691994	    -16.35214066	     17.24851981	     17.24851981	     18.12650921	     -5.15599637	     -1.73754230	     26.66395474	     -6.82512597	      1.22556418	     17.95805384	     17.95805384	      3.90127862	     -1.23032218	     -0.05932399	     -8.51421159	      3.51977339	      3.26004902	     55.46408062	    -18.12194535	    -10.36179951	     74.15583875	     45.09826559	      0.00000000	      0.00000000	    -13.47054425	     -8.56846527	     18.54466219	     34.06923447	     43.80500139	      0.00000000	      0.00000000
     37.19914286	     -5.38443311	     -3.80028486	     13.89889257	      1.10701829	      0.92152980	      0.51963570	      4.68682885	      1.65738019	    -16.17063239	     17.26623187	     17.26623187	     18.21735154	     -4.95278226	     -1.72846848	     26.53180176	     -6.76522498	      1.26289046	     18.87573184	     18.87573184	      4.02454507	     -1.94319841	     -0.45234281	     -8.52077018	      3.37983442	      3.24140974	     55.26769491	    -17.64059136	    -10.17790425	     74.37013809	     45.08470121	      0.00000000	      0.00000000	    -12.69790254	     -8.95192097	     18.42938976	     34.15675845	     43.83533445	      0.00000000	      0.00000000
     37.22142857	     -5.36001402	     -4.02645971	     13.63697014	      1.10835252	      0.92126594	      0.51533383	      4.23917156	      1.66490440	    -16.18078350	     17.21930643	     17.21930643	     18.27798871	     -4.52067784	     -1.63569918	     26.62135912	     -6.74852137	      1.81913225	     19.99938377	     19.99938377	      4.09717894	     -3.41407638	     -1.06264827	     -8.47372739	      3.52226579	      3.15436321	     55.10066656	    -17.42455003	    -10.03911377	     75.00607828	     45.06218685	      0.00000000	      0.00000000	    -12.10190808	     -9.17762415	     18.28550520	     34.09527562	     43.88144274	      0.00000000	      0.00000000
